<svg xmlns="http://www.w3.org/2000/svg" viewBox="0 0 512 512" fill="none">
  <defs>
    <linearGradient id="grad" x1="0%" y1="0%" x2="100%" y2="100%">
      <stop offset="0%" style="stop-color:#6366f1"/>
      <stop offset="100%" style="stop-color:#22d3ee"/>
    </linearGradient>
  </defs>
  <!-- Background for favicon visibility -->
  <rect width="512" height="512" rx="96" fill="#0f172a"/>
  <!-- Outer hexagon vault -->
  <path d="M256 64L424 156V340L256 432L88 340V156L256 64Z" fill="url(#grad)" opacity="0.2"/>
  <path d="M256 64L424 156V340L256 432L88 340V156L256 64Z" stroke="url(#grad)" stroke-width="8" fill="none"/>
  <!-- Brain nodes -->
  <circle cx="256" cy="190" r="36" fill="url(#grad)"/>
  <circle cx="180" cy="260" r="26" fill="url(#grad)"/>
  <circle cx="332" cy="260" r="26" fill="url(#grad)"/>
  <circle cx="256" cy="310" r="20" fill="url(#grad)"/>
  <circle cx="200" cy="350" r="18" fill="url(#grad)"/>
  <circle cx="312" cy="350" r="18" fill="url(#grad)"/>
  <!-- Connections -->
  <line x1="256" y1="226" x2="180" y2="234" stroke="url(#grad)" stroke-width="5"/>
  <line x1="256" y1="226" x2="332" y2="234" stroke="url(#grad)" stroke-width="5"/>
  <line x1="180" y1="286" x2="200" y2="332" stroke="url(#grad)" stroke-width="4"/>
  <line x1="332" y1="286" x2="312" y2="332" stroke="url(#grad)" stroke-width="4"/>
  <line x1="256" y1="330" x2="200" y2="350" stroke="url(#grad)" stroke-width="3"/>
  <line x1="256" y1="330" x2="312" y2="350" stroke="url(#grad)" stroke-width="3"/>
</svg>
