<svg xmlns="http://www.w3.org/2000/svg" viewBox="0 0 512 512" fill="none">
  <defs>
    <linearGradient id="grad" x1="0%" y1="0%" x2="100%" y2="100%">
      <stop offset="0%" style="stop-color:#6366f1"/>
      <stop offset="100%" style="stop-color:#22d3ee"/>
    </linearGradient>
  </defs>
  <!-- Outer hexagon vault -->
  <path d="M256 32L456 144V368L256 480L56 368V144L256 32Z" fill="url(#grad)" opacity="0.15"/>
  <path d="M256 32L456 144V368L256 480L56 368V144L256 32Z" stroke="url(#grad)" stroke-width="8" fill="none"/>
  <!-- Brain-inspired neural network -->
  <circle cx="256" cy="200" r="40" fill="url(#grad)"/>
  <circle cx="180" cy="280" r="28" fill="url(#grad)"/>
  <circle cx="332" cy="280" r="28" fill="url(#grad)"/>
  <circle cx="200" cy="360" r="24" fill="url(#grad)"/>
  <circle cx="312" cy="360" r="24" fill="url(#grad)"/>
  <circle cx="256" cy="320" r="20" fill="url(#grad)"/>
  <!-- Neural connections -->
  <line x1="256" y1="240" x2="180" y2="252" stroke="url(#grad)" stroke-width="4"/>
  <line x1="256" y1="240" x2="332" y2="252" stroke="url(#grad)" stroke-width="4"/>
  <line x1="180" y1="308" x2="200" y2="336" stroke="url(#grad)" stroke-width="4"/>
  <line x1="332" y1="308" x2="312" y2="336" stroke="url(#grad)" stroke-width="4"/>
  <line x1="256" y1="340" x2="200" y2="360" stroke="url(#grad)" stroke-width="3"/>
  <line x1="256" y1="340" x2="312" y2="360" stroke="url(#grad)" stroke-width="3"/>
  <line x1="180" y1="280" x2="256" y2="300" stroke="url(#grad)" stroke-width="3"/>
  <line x1="332" y1="280" x2="256" y2="300" stroke="url(#grad)" stroke-width="3"/>
</svg>
